<svg xmlns="http://www.w3.org/2000/svg" xmlns:xlink="http://www.w3.org/1999/xlink" version="1.1" id="Layer_1" x="0px" y="0px" width="100px" height="100px" viewBox="5.0 -10.0 100.0 135.0" enable-background="new 0 0 100 100" xml:space="preserve">
<g>
	<path d="M49.875,13.089c-0.365,0.057-0.646,0.423-0.646,0.791v5.903c0,0.424,0.394,0.819,0.815,0.819s0.787-0.396,0.787-0.819   v-5.903c0-0.452-0.422-0.847-0.871-0.791C49.931,13.089,49.902,13.089,49.875,13.089L49.875,13.089z M35.463,16.986   c-0.534,0.057-0.843,0.763-0.562,1.214l2.921,5.112c0.197,0.339,0.73,0.48,1.096,0.282s0.506-0.734,0.281-1.102l-2.95-5.112   c-0.141-0.254-0.421-0.424-0.703-0.396C35.519,16.958,35.491,16.958,35.463,16.986L35.463,16.986z M64.371,16.986   c-0.226,0.028-0.45,0.198-0.563,0.396l-2.922,5.112c-0.252,0.367-0.14,0.932,0.253,1.158c0.365,0.226,0.928,0.056,1.124-0.339   l2.922-5.112c0.309-0.48-0.085-1.214-0.646-1.214C64.483,16.958,64.427,16.958,64.371,16.986L64.371,16.986z M50.043,23.144   c-10.507,0-19.047,8.699-19.047,19.346c0,6.327,1.826,9.491,3.511,12.287c1.686,2.796,3.231,5.225,3.231,10.732v0.028   c0,0.028,0,0.028,0,0.028c0,0.028,0,0.028,0,0.056c0.028,0,0.028,0.028,0.028,0.028c0,0.057,0.028,0.085,0.028,0.142l2.95,15.478   c0.253,1.327,1.545,2.146,2.922,2.146h0.281v0.423c0,1.61,1.096,3.079,2.641,3.079h6.912c1.545,0,2.669-1.469,2.669-3.079v-0.423   h0.225c1.376,0,2.696-0.819,2.949-2.146l2.95-15.506l0.028-0.057c0-0.057,0-0.085,0-0.112c0-0.028,0-0.085,0-0.113   c0-0.057,0-0.085,0-0.113c0.027-5.395,1.601-7.795,3.286-10.591s3.456-5.96,3.456-12.287C69.063,31.842,60.55,23.144,50.043,23.144   L50.043,23.144z M50.043,24.753c9.636,0,17.446,7.936,17.446,17.736c0,6.016-1.573,8.671-3.259,11.467   c-1.602,2.655-3.259,5.508-3.428,10.789h-7.585H52.6V49.099c1.433-0.875,2.473-2.372,2.473-4.208c0-2.796-2.275-5.084-5.029-5.084   c-2.781,0-5,2.288-5,5.084c0,1.836,0.983,3.417,2.444,4.321v15.534h-0.618h-7.585c-0.168-5.281-1.826-8.134-3.427-10.789   c-1.686-2.796-3.259-5.451-3.259-11.467C32.597,32.689,40.407,24.753,50.043,24.753L50.043,24.753z M75.046,27.606   c-0.028,0-0.057,0.028-0.084,0.028c-0.085,0.028-0.197,0.057-0.281,0.085l-5.085,2.965c-0.394,0.198-0.562,0.763-0.337,1.13   c0.196,0.396,0.786,0.508,1.151,0.254l5.057-2.938c0.365-0.141,0.563-0.593,0.479-0.96C75.832,27.803,75.411,27.549,75.046,27.606   L75.046,27.606z M24.872,27.634c-0.674,0.085-0.871,1.187-0.281,1.497l5.085,2.938c0.337,0.254,0.927,0.141,1.152-0.254   c0.225-0.367,0.028-0.932-0.365-1.13l-5.085-2.965C25.237,27.634,25.041,27.606,24.872,27.634L24.872,27.634z M50.043,41.417   c1.911,0,3.428,1.554,3.428,3.474c0,1.412-0.814,2.626-1.995,3.163c-0.28,0.141-0.478,0.424-0.478,0.734v15.958H49.06V48.788   c0-0.311-0.197-0.593-0.449-0.734c-1.208-0.537-1.995-1.751-1.995-3.163C46.616,42.97,48.132,41.417,50.043,41.417L50.043,41.417z    M20.939,42.179c-0.394,0.057-0.73,0.48-0.703,0.875c0.056,0.424,0.478,0.763,0.871,0.706h5.899   c0.393,0.028,0.787-0.367,0.787-0.791c0-0.424-0.394-0.791-0.787-0.791h-5.899C21.051,42.179,20.995,42.179,20.939,42.179   L20.939,42.179z M72.883,42.179c-0.422,0.057-0.73,0.48-0.674,0.904c0.056,0.424,0.478,0.763,0.898,0.678h5.871   c0.422,0.028,0.787-0.367,0.787-0.791c0-0.424-0.365-0.791-0.787-0.791h-5.871c-0.056,0-0.112,0-0.141,0   S72.911,42.179,72.883,42.179L72.883,42.179z M39.508,66.355h8.652h5.057h7.36l-2.781,14.603c-0.056,0.311-0.702,0.847-1.404,0.847   h-0.899h-0.141h-8.484h-2.247h-0.955c-0.674,0-1.292-0.536-1.349-0.847L39.508,66.355L39.508,66.355z M45.52,83.415h1.348h7.698   v0.423c0,0.904-0.562,1.497-1.067,1.497h-6.912c-0.506,0-1.067-0.593-1.067-1.497V83.415L45.52,83.415z"/>
</g>
<text x="0.0" y="117.5" font-size="5.0" font-weight="bold" font-family="Helvetica Neue, Helvetica, Arial-Unicode, Arial, Sans-serif" fill="#000000">Created by baabullah hasan</text><text x="0.0" y="122.5" font-size="5.0" font-weight="bold" font-family="Helvetica Neue, Helvetica, Arial-Unicode, Arial, Sans-serif" fill="#000000">from the Noun Project</text></svg>