<svg xmlns="http://www.w3.org/2000/svg" xmlns:xlink="http://www.w3.org/1999/xlink" version="1.1" id="Layer_1" x="0px" y="0px" width="72.293px" height="61.105px" viewBox="3.61465 -6.1105 72.293 82.49175" enable-background="new 0 0 72.293 61.105" xml:space="preserve">
<g>
	<path d="M18.251,0.012c-0.619-0.028-1.239,0-1.858,0.028c-1.633,0.056-3.295,0.281-4.957,0.675c-4.111,0.984-7.04,3.964-8.871,7.76   c-1.831,3.768-2.619,8.35-2.563,12.82c0.057,4.499,0.986,8.856,2.647,12.174c1.633,3.317,4.168,5.679,7.378,5.679h17.827v14.479   c0,4.724,3.21,7.45,6.505,7.479c3.267,0.028,6.506-2.728,6.449-7.676c-0.028-3.177,1.83-7.422,4.703-10.992   c2.619-3.29,6.083-5.961,9.462-6.973v2.052c0,0.815,0.676,1.49,1.493,1.49H70.83c0.788,0,1.464-0.675,1.464-1.49V4.932   c0-0.815-0.676-1.49-1.464-1.49H56.467c-0.817,0-1.493,0.675-1.493,1.49v2.727h-5.604c-5.942-0.956-12.109-3.43-18.418-5.313   C26.785,1.08,22.561,0.096,18.251,0.012L18.251,0.012z M18.224,1.586c4.111,0.084,8.195,1.041,12.278,2.277   c6.251,1.855,12.503,4.386,18.755,5.37c0.028,0,0.085,0,0.113,0h5.575v24.657c-3.999,1.04-7.801,3.964-10.673,7.563   c-3.041,3.768-5.098,8.21-5.041,11.977c0.028,4.33-2.422,6.102-4.844,6.102c-2.422-0.028-4.957-1.884-4.957-5.904V38.332   c0-0.394-0.366-0.787-0.789-0.787H10.028c-2.45,0-4.478-1.771-5.97-4.779c-1.521-3.037-2.394-7.198-2.45-11.471   c-0.057-4.301,0.704-8.659,2.365-12.146c1.69-3.458,4.225-6.017,7.801-6.888c1.577-0.366,3.126-0.563,4.703-0.646   C17.069,1.586,17.66,1.586,18.224,1.586L18.224,1.586z M56.551,5.016h14.165v32.417H56.551V5.016L56.551,5.016z M63.648,7.687   c-2.225,0-4.055,1.743-4.055,3.908c0,2.165,1.83,3.993,4.055,3.993s4.027-1.828,4.027-3.993C67.675,9.43,65.873,7.687,63.648,7.687   L63.648,7.687z M63.648,9.233c1.352,0,2.422,1.04,2.422,2.361c0,1.322-1.07,2.418-2.422,2.418s-2.479-1.096-2.479-2.418   C61.169,10.273,62.296,9.233,63.648,9.233L63.648,9.233z"/>
</g>
<text x="0.0" y="71.798375" font-size="3.05525" font-weight="bold" font-family="Helvetica Neue, Helvetica, Arial-Unicode, Arial, Sans-serif" fill="#000000">Created by baabullah hasan</text><text x="0.0" y="74.853625" font-size="3.05525" font-weight="bold" font-family="Helvetica Neue, Helvetica, Arial-Unicode, Arial, Sans-serif" fill="#000000">from the Noun Project</text></svg>