<?xml version="1.0" encoding="UTF-8" standalone="no"?>
<svg
   xmlns:dc="http://purl.org/dc/elements/1.1/"
   xmlns:cc="http://creativecommons.org/ns#"
   xmlns:rdf="http://www.w3.org/1999/02/22-rdf-syntax-ns#"
   xmlns:svg="http://www.w3.org/2000/svg"
   xmlns="http://www.w3.org/2000/svg"
   xmlns:sodipodi="http://sodipodi.sourceforge.net/DTD/sodipodi-0.dtd"
   xmlns:inkscape="http://www.inkscape.org/namespaces/inkscape"
   version="1.1"
   id="Layer_1"
   x="0px"
   y="0px"
   width="100px"
   height="100px"
   viewBox="5.0 -10.0 100.0 135.0"
   enable-background="new 0 0 100 100"
   xml:space="preserve"
   inkscape:version="0.91 r13725"
   sodipodi:docname="icon-tools.svg"><metadata
     id="metadata6231"><rdf:RDF><cc:Work
         rdf:about=""><dc:format>image/svg+xml</dc:format><dc:type
           rdf:resource="http://purl.org/dc/dcmitype/StillImage" /><dc:title></dc:title></cc:Work></rdf:RDF></metadata><defs
     id="defs6229" /><sodipodi:namedview
     pagecolor="#ffffff"
     bordercolor="#666666"
     borderopacity="1"
     objecttolerance="10"
     gridtolerance="10"
     guidetolerance="10"
     inkscape:pageopacity="0"
     inkscape:pageshadow="2"
     inkscape:window-width="1165"
     inkscape:window-height="604"
     id="namedview6227"
     showgrid="false"
     inkscape:zoom="2.36"
     inkscape:cx="50"
     inkscape:cy="50"
     inkscape:window-x="0"
     inkscape:window-y="0"
     inkscape:window-maximized="0"
     inkscape:current-layer="Layer_1" /><g
     id="g6223"
     transform="matrix(2.3706254,0,0,2.3706305,-63.530083,-61.060415)"><path
       d="m 33.019,21.519 c -0.168,0 -0.336,0.084 -0.448,0.224 l -0.028,0 -10.786,10.73 c -0.308,0.308 -0.308,0.84 0,1.148 l 11.991,11.991 4.146,4.175 -13.196,13.225 c -0.112,0.111 -0.168,0.224 -0.196,0.364 l -1.905,6.836 0,0.056 c -0.028,0 -0.028,0 -0.028,0.028 -0.028,0.027 -0.028,0.084 -0.028,0.14 l -0.028,0.057 0,0 -0.729,2.605 c -0.476,1.765 -0.252,3.361 0.756,4.342 0.112,0.112 0.252,0.196 0.42,0.225 0.028,0.028 0.056,0.028 0.084,0.028 0.98,0.7 2.325,0.952 3.866,0.532 l 2.578,-0.729 0.168,-0.057 c 0.056,0 0.084,-0.027 0.14,-0.056 l 6.78,-1.877 c 0.112,-0.028 0.252,-0.084 0.336,-0.196 l 13.279,-13.252 2.521,2.521 13.672,13.7 c 0.309,0.28 0.841,0.28 1.121,-0.028 L 78.263,67.465 c 0.28,-0.308 0.28,-0.841 0,-1.148 l -13.7,-13.7 -2.463,-2.466 9.357,-9.385 c 0.14,-0.056 0.252,-0.196 0.336,-0.336 l 6.443,-6.416 c 0.28,-0.309 0.28,-0.813 0,-1.121 L 67.03,21.771 c -0.168,-0.168 -0.393,-0.252 -0.645,-0.224 -0.168,0.028 -0.336,0.112 -0.448,0.224 l -6.472,6.472 c -0.14,0.084 -0.252,0.196 -0.336,0.336 L 49.8,37.88 45.626,33.705 33.775,21.854 C 33.747,21.826 33.719,21.77 33.691,21.742 33.523,21.575 33.243,21.491 33.019,21.519 l 0,0 z m 0.084,1.905 11.431,11.431 4.146,4.146 0.028,0.028 -9.666,9.638 -4.174,-4.174 -1.737,-1.737 2.073,-2.045 c 0.504,-0.476 0,-1.485 -0.672,-1.373 -0.168,0.028 -0.336,0.112 -0.448,0.252 l -2.073,2.045 -1.121,-1.121 3.446,-3.446 c 0.28,-0.224 0.364,-0.672 0.196,-0.98 -0.168,-0.309 -0.588,-0.477 -0.925,-0.364 -0.14,0.028 -0.28,0.112 -0.392,0.224 l -3.446,3.446 -1.121,-1.121 2.045,-2.073 c 0.476,-0.448 0,-1.429 -0.645,-1.345 -0.168,0.028 -0.336,0.112 -0.476,0.252 l -2.045,2.045 -4.09,-4.119 9.666,-9.609 0,0 z m 33.395,0.028 10.058,10.002 -5.52,5.52 -10.057,-10.003 5.519,-5.519 0,0 z m -6.64,6.64 10.058,10.002 -9.414,9.441 c -0.027,0 -0.056,0.028 -0.084,0.056 L 49.632,60.378 c -0.028,0.027 -0.056,0.084 -0.084,0.112 L 35.96,74.05 29.656,75.815 24.193,70.352 25.958,63.993 39.434,50.489 c 0.056,-0.028 0.112,-0.085 0.168,-0.112 L 50.388,39.59 c 0.056,-0.056 0.112,-0.112 0.14,-0.196 l 9.33,-9.302 0,0 z m -0.953,5.575 c -0.168,0.028 -0.336,0.112 -0.477,0.252 L 30.525,63.824 28.424,63.767 c -0.084,-0.028 -0.168,-0.028 -0.252,0 -0.42,0.028 -0.756,0.448 -0.7,0.869 0.028,0.42 0.448,0.756 0.868,0.7 l 1.709,0.084 0.084,1.709 c 0,0.392 0.392,0.756 0.812,0.756 0.42,-0.027 0.785,-0.42 0.757,-0.84 L 31.618,64.943 59.55,37.012 c 0.448,-0.42 0.056,-1.373 -0.561,-1.345 -0.027,0 -0.055,0 -0.084,0 l 0,0 z m 4.511,4.511 C 63.248,40.206 63.08,40.29 62.968,40.43 L 35.036,68.362 32.935,68.278 c -0.056,0 -0.112,0 -0.168,0 -0.42,0.028 -0.756,0.42 -0.756,0.841 0.028,0.42 0.448,0.756 0.84,0.756 l 1.709,0.057 0.084,1.709 c 0.028,0.42 0.42,0.784 0.84,0.756 0.393,-0.027 0.757,-0.42 0.729,-0.84 L 36.157,69.455 64.061,41.55 c 0.477,-0.448 0.084,-1.373 -0.561,-1.373 -0.028,10e-4 -0.056,10e-4 -0.084,10e-4 l 0,0 z m -2.437,11.094 2.466,2.465 13.14,13.168 -9.638,9.666 -4.091,-4.091 2.046,-2.045 c 0.504,-0.448 0.027,-1.457 -0.645,-1.373 -0.168,0.028 -0.337,0.112 -0.448,0.253 l -2.073,2.045 -1.121,-1.121 3.446,-3.445 c 0.28,-0.225 0.364,-0.673 0.196,-0.981 -0.168,-0.308 -0.589,-0.476 -0.925,-0.364 -0.14,0.028 -0.28,0.112 -0.393,0.225 l -3.445,3.446 -1.121,-1.148 2.045,-2.046 c 0.477,-0.448 0,-1.429 -0.644,-1.345 -0.169,0 -0.337,0.084 -0.477,0.225 l -2.045,2.073 -3.446,-3.446 -2.493,-2.493 9.666,-9.668 0,0 z m -37.29,20.817 4.202,4.202 -1.4,0.393 c -1.401,0.392 -2.354,0.14 -2.83,-0.336 -0.504,-0.505 -0.757,-1.43 -0.364,-2.83 l 0.392,-1.429 0,0 z"
       id="path6225"
       inkscape:connector-curvature="0"
       style="fill:#000000" /></g></svg>