<?xml version="1.0" encoding="UTF-8" standalone="no"?>
<svg
   xmlns:dc="http://purl.org/dc/elements/1.1/"
   xmlns:cc="http://creativecommons.org/ns#"
   xmlns:rdf="http://www.w3.org/1999/02/22-rdf-syntax-ns#"
   xmlns:svg="http://www.w3.org/2000/svg"
   xmlns="http://www.w3.org/2000/svg"
   xmlns:sodipodi="http://sodipodi.sourceforge.net/DTD/sodipodi-0.dtd"
   xmlns:inkscape="http://www.inkscape.org/namespaces/inkscape"
   version="1.1"
   id="Layer_1"
   x="0px"
   y="0px"
   width="100px"
   height="100px"
   viewBox="5.0 -10.0 100.0 135.0"
   enable-background="new 0 0 100 100"
   xml:space="preserve"
   inkscape:version="0.91 r13725"
   sodipodi:docname="icon-download.svg"><metadata
     id="metadata3391"><rdf:RDF><cc:Work
         rdf:about=""><dc:format>image/svg+xml</dc:format><dc:type
           rdf:resource="http://purl.org/dc/dcmitype/StillImage" /></cc:Work></rdf:RDF></metadata><defs
     id="defs3389" /><sodipodi:namedview
     pagecolor="#ffffff"
     bordercolor="#666666"
     borderopacity="1"
     objecttolerance="10"
     gridtolerance="10"
     guidetolerance="10"
     inkscape:pageopacity="0"
     inkscape:pageshadow="2"
     inkscape:window-width="1680"
     inkscape:window-height="925"
     id="namedview3387"
     showgrid="false"
     showguides="false"
     inkscape:zoom="7.23"
     inkscape:cx="50"
     inkscape:cy="50"
     inkscape:window-x="0"
     inkscape:window-y="0"
     inkscape:window-maximized="1"
     inkscape:current-layer="Layer_1" /><g
     id="g3383"
     transform="matrix(2.1344549,0,0,2.1344549,-53.04824,-48.230613)"><path
       d="m 50.425,20.712 c -0.364,0.056 -0.672,0.421 -0.644,0.813 0,0 0.028,12.591 0.056,25.238 0,6.337 0.028,12.675 0.028,17.47 -0.028,2.384 -0.028,4.403 -0.028,5.833 0,0.701 -0.028,1.262 -0.028,1.654 0,0.196 0,0.337 0,0.449 L 37.148,59.522 c -0.14,-0.14 -0.336,-0.225 -0.561,-0.225 -0.616,0 -0.98,0.926 -0.532,1.347 L 50.06,74.665 c 0.28,0.281 0.813,0.281 1.093,0 L 65.158,60.644 c 0.364,-0.28 0.393,-0.869 0.084,-1.178 -0.336,-0.309 -0.896,-0.28 -1.176,0.056 L 51.377,72.198 c 0,-0.112 0,-0.253 0,-0.449 0,-0.393 0.028,-0.981 0.028,-1.683 0,-1.43 0.028,-3.449 0.028,-5.833 0,-4.795 -0.028,-11.133 -0.028,-17.47 0,-12.647 -0.056,-25.266 -0.056,-25.266 0,-0.449 -0.42,-0.841 -0.869,-0.786 0.001,0.001 -0.027,0.001 -0.055,0.001 l 0,0 z M 25.019,54.055 c -3.333,0 -6.022,2.72 -6.022,6.057 l 0,13.124 c 0,3.337 2.689,6.058 6.022,6.058 l 51.175,0 c 3.334,0 6.051,-2.721 6.051,-6.058 l 0,-13.125 c 0,-3.337 -2.717,-6.057 -6.051,-6.057 l -10.168,0 c -0.42,0 -0.784,0.393 -0.784,0.813 0,0.421 0.364,0.785 0.784,0.785 l 10.168,0 c 2.465,0 4.454,1.963 4.454,4.459 l 0,13.124 c 0,2.496 -1.989,4.486 -4.454,4.486 l -51.175,0 c -2.465,0 -4.454,-1.99 -4.454,-4.486 l 0,-13.124 c 0,-2.496 1.989,-4.459 4.454,-4.459 l 10.168,0 c 0.42,0 0.784,-0.364 0.784,-0.785 0,-0.42 -0.364,-0.813 -0.784,-0.813 l -10.168,0 0,10e-4 z"
       id="path3385"
       inkscape:connector-curvature="0" /></g></svg>