<svg xmlns="http://www.w3.org/2000/svg" xmlns:xlink="http://www.w3.org/1999/xlink" version="1.1" id="Layer_1" x="0px" y="0px" width="71.468px" height="71.282px" viewBox="3.5734 -7.1282 71.468 96.2307" enable-background="new 0 0 71.468 71.282" xml:space="preserve">
<g>
	<path d="M35.649,0.001c-0.028,0-0.057,0.028-0.085,0.028c-0.368,0.084-0.651,0.421-0.623,0.786v53.271L21.956,41.52   c-0.198-0.197-0.481-0.281-0.736-0.225c-0.594,0.111-0.82,0.98-0.396,1.373l14.345,13.859c0.283,0.309,0.82,0.309,1.103,0   l14.345-13.859c0.311-0.309,0.311-0.84,0.027-1.148c-0.283-0.281-0.848-0.281-1.131,0L36.526,54.086V0.815   C36.555,0.366,36.102-0.026,35.649,0.001L35.649,0.001z M26.511,1.629c-0.057,0.028-0.085,0.028-0.142,0.028   C11.176,5.752,0,19.498,0,35.852c0,19.553,16.014,35.43,35.734,35.43s35.734-15.877,35.734-35.43   c0-16.354-11.176-30.1-26.369-34.195c-0.424-0.112-0.877,0.168-0.99,0.561s0.141,0.87,0.566,0.982   c14.486,3.899,25.18,17.028,25.18,32.652c0,18.711-15.25,33.859-34.121,33.859c-18.872,0-34.15-15.148-34.15-33.859   c0-15.625,10.695-28.753,25.181-32.652c0.396-0.084,0.708-0.505,0.623-0.926C27.331,1.881,26.907,1.573,26.511,1.629L26.511,1.629z   "/>
</g>
</svg>