<?xml version="1.0" encoding="UTF-8" standalone="no"?>
<svg
   xmlns:dc="http://purl.org/dc/elements/1.1/"
   xmlns:cc="http://creativecommons.org/ns#"
   xmlns:rdf="http://www.w3.org/1999/02/22-rdf-syntax-ns#"
   xmlns:svg="http://www.w3.org/2000/svg"
   xmlns="http://www.w3.org/2000/svg"
   xmlns:sodipodi="http://sodipodi.sourceforge.net/DTD/sodipodi-0.dtd"
   xmlns:inkscape="http://www.inkscape.org/namespaces/inkscape"
   version="1.1"
   id="Layer_1"
   x="0px"
   y="0px"
   width="100px"
   height="100px"
   viewBox="5.0 -10.0 100.0 135.0"
   enable-background="new 0 0 100 100"
   xml:space="preserve"
   inkscape:version="0.91 r13725"
   sodipodi:docname="icon-signin.svg"><metadata
     id="metadata6890"><rdf:RDF><cc:Work
         rdf:about=""><dc:format>image/svg+xml</dc:format><dc:type
           rdf:resource="http://purl.org/dc/dcmitype/StillImage" /></cc:Work></rdf:RDF></metadata><defs
     id="defs6888" /><sodipodi:namedview
     pagecolor="#ffffff"
     bordercolor="#666666"
     borderopacity="1"
     objecttolerance="10"
     gridtolerance="10"
     guidetolerance="10"
     inkscape:pageopacity="0"
     inkscape:pageshadow="2"
     inkscape:window-width="1067"
     inkscape:window-height="796"
     id="namedview6886"
     showgrid="false"
     inkscape:zoom="2.36"
     inkscape:cx="50"
     inkscape:cy="50"
     inkscape:window-x="0"
     inkscape:window-y="0"
     inkscape:window-maximized="0"
     inkscape:current-layer="Layer_1" /><g
     id="g6892"
     transform="matrix(2.0088987,0,0,2.0088987,-46.303378,-41.626089)"><path
       id="path6880"
       d="m 67.973,82.944 -35,0 c -3.227,0 -5.852,-2.625 -5.852,-5.851 l 0,-30.333 c 0,-3.226 2.625,-5.851 5.852,-5.851 l 35,0 c 3.227,0 5.852,2.625 5.852,5.851 l 0,30.334 c -0.001,3.225 -2.626,5.85 -5.852,5.85 z m -35,-40.334 c -2.288,0 -4.148,1.861 -4.148,4.149 l 0,30.334 c 0,2.288 1.86,4.149 4.148,4.149 l 35,0 c 2.288,0 4.148,-1.861 4.148,-4.149 l 0,-30.333 c 0,-2.288 -1.86,-4.149 -4.148,-4.149 l -35,0 z"
       inkscape:connector-curvature="0" /><path
       id="path6882"
       d="m 53.988,73.026 -7.027,0 c -1.385,0 -2.512,-1.125 -2.512,-2.511 0,-0.075 0.01,-0.149 0.029,-0.222 L 46.445,63 c -1.72,-1.271 -2.729,-3.254 -2.729,-5.418 0,-3.725 3.031,-6.756 6.757,-6.756 3.726,0 6.755,3.031 6.755,6.756 0,2.164 -1.009,4.146 -2.729,5.417 l 1.969,7.294 c 0.02,0.072 0.029,0.146 0.029,0.222 10e-4,1.386 -1.126,2.511 -2.509,2.511 z m -7.832,-2.418 c 0.047,0.403 0.389,0.717 0.805,0.717 l 7.027,0 c 0.414,0 0.758,-0.312 0.805,-0.717 l -2.094,-7.752 c -0.099,-0.367 0.058,-0.755 0.383,-0.949 1.531,-0.926 2.445,-2.543 2.445,-4.323 0,-2.787 -2.267,-5.056 -5.054,-5.056 -2.788,0 -5.056,2.269 -5.056,5.056 0,1.78 0.914,3.397 2.445,4.323 0.325,0.196 0.48,0.584 0.383,0.949 l -2.089,7.752 z"
       inkscape:connector-curvature="0" /><path
       id="path6884"
       d="m 65.556,38.438 c -0.47,0 -0.851,-0.381 -0.851,-0.851 l 0,-6.82 c 0,-7.346 -5.977,-13.323 -13.321,-13.323 l -1.822,0 c -7.346,0 -13.321,5.977 -13.321,13.323 l 0,6.82 c 0,0.47 -0.381,0.851 -0.851,0.851 -0.47,0 -0.851,-0.381 -0.851,-0.851 l 0,-6.82 c 0,-8.284 6.738,-15.024 15.021,-15.024 l 1.822,0 c 8.283,0 15.021,6.74 15.021,15.024 l 0,6.82 c 0.003,0.47 -0.378,0.851 -0.847,0.851 z"
       inkscape:connector-curvature="0" /></g></svg>