<svg xmlns="http://www.w3.org/2000/svg" xmlns:xlink="http://www.w3.org/1999/xlink" version="1.1" id="Layer_1" x="0px" y="0px" width="100px" height="100px" viewBox="5.0 -10.0 100.0 135.0" enable-background="new 0 0 100 100" xml:space="preserve">
<g>
	<path d="M49.972,20.709c-0.056,0-0.112,0-0.14,0.028c-0.168,0.028-0.308,0.112-0.392,0.196l-14.005,14.05   c-0.364,0.252-0.392,0.841-0.084,1.149c0.308,0.337,0.896,0.309,1.177-0.056l12.661-12.619c0,0.308,0.028,0.701,0.028,1.233   c0,1.178,0,2.832,0.028,4.823c0,3.954-0.028,9.142-0.028,14.358c-0.028,10.432-0.028,20.779-0.028,20.779   c0,0.421,0.364,0.813,0.784,0.813s0.784-0.393,0.784-0.813c0,0,0.028-10.348,0.028-20.779c0-5.217,0.028-10.433,0.028-14.387   c0-1.99-0.028-3.617-0.028-4.795c0-0.561-0.028-0.953-0.028-1.29l12.689,12.676c0.279,0.364,0.84,0.393,1.176,0.056   c0.309-0.309,0.28-0.897-0.084-1.149l-14.005-14.05C50.392,20.794,50.196,20.709,49.972,20.709L49.972,20.709z M24.398,54.053   c-3.333,0-6.022,2.72-6.022,6.057v13.124c0,3.337,2.689,6.058,6.022,6.058h51.175c3.334,0,6.051-2.721,6.051-6.058V60.109   c0-3.337-2.717-6.057-6.051-6.057H65.405c-0.42,0-0.784,0.393-0.784,0.813c0,0.421,0.364,0.785,0.784,0.785h10.168   c2.465,0,4.454,1.963,4.454,4.459v13.124c0,2.496-1.989,4.486-4.454,4.486H24.398c-2.465,0-4.454-1.99-4.454-4.486V60.109   c0-2.496,1.989-4.459,4.454-4.459h10.168c0.42,0,0.784-0.364,0.784-0.785c0-0.42-0.364-0.813-0.784-0.813H24.398L24.398,54.053z"/>
</g>
</svg>