<?xml version="1.0" encoding="UTF-8" standalone="no"?>
<svg
   xmlns:dc="http://purl.org/dc/elements/1.1/"
   xmlns:cc="http://creativecommons.org/ns#"
   xmlns:rdf="http://www.w3.org/1999/02/22-rdf-syntax-ns#"
   xmlns:svg="http://www.w3.org/2000/svg"
   xmlns="http://www.w3.org/2000/svg"
   xmlns:sodipodi="http://sodipodi.sourceforge.net/DTD/sodipodi-0.dtd"
   xmlns:inkscape="http://www.inkscape.org/namespaces/inkscape"
   version="1.1"
   id="Layer_1"
   x="0px"
   y="0px"
   width="100px"
   height="100px"
   viewBox="5.0 -10.0 100.0 135.0"
   enable-background="new 0 0 100 100"
   xml:space="preserve"
   inkscape:version="0.91 r13725"
   sodipodi:docname="icon-settings.svg"><metadata
     id="metadata6374"><rdf:RDF><cc:Work
         rdf:about=""><dc:format>image/svg+xml</dc:format><dc:type
           rdf:resource="http://purl.org/dc/dcmitype/StillImage" /></cc:Work></rdf:RDF></metadata><defs
     id="defs6372" /><sodipodi:namedview
     pagecolor="#ffffff"
     bordercolor="#666666"
     borderopacity="1"
     objecttolerance="10"
     gridtolerance="10"
     guidetolerance="10"
     inkscape:pageopacity="0"
     inkscape:pageshadow="2"
     inkscape:window-width="932"
     inkscape:window-height="621"
     id="namedview6370"
     showgrid="false"
     inkscape:zoom="2.36"
     inkscape:cx="50"
     inkscape:cy="50"
     inkscape:window-x="0"
     inkscape:window-y="0"
     inkscape:window-maximized="0"
     inkscape:current-layer="Layer_1" /><g
     id="g6362"
     transform="matrix(2.1423471,0,0,2.142356,-52.118426,-49.619148)"><path
       d="m 45.507,18.492 c -1.479,0 -2.791,1.116 -3.042,2.595 L 41.6,26.222 c -0.837,0.307 -1.647,0.67 -2.456,1.033 l -4.298,-3.042 c -1.2,-0.865 -2.874,-0.698 -3.935,0.335 l -2.371,2.372 -1.619,1.591 0,0.028 -2.316,2.344 -0.028,0.028 c -1.033,1.033 -1.256,2.735 -0.363,3.963 l 3.014,4.27 c -0.391,0.782 -0.698,1.591 -1.005,2.428 l -5.135,0.893 C 19.609,42.716 18.493,44 18.493,45.507 l 0,3.377 0,2.289 0,3.321 c 0,1.479 1.088,2.818 2.595,3.069 l 5.135,0.865 c 0.307,0.837 0.614,1.646 1.005,2.456 l -2.986,4.242 c -0.865,1.228 -0.753,2.93 0.307,3.963 l 2.4,2.399 1.619,1.591 2.344,2.345 c 1.032,1.061 2.763,1.283 3.991,0.391 l 4.27,-3.042 c 0.781,0.362 1.591,0.726 2.428,1.005 l 0.865,5.163 c 0.251,1.479 1.563,2.567 3.042,2.567 l 3.349,0 2.288,0 3.321,0 c 1.507,0 2.847,-1.061 3.098,-2.567 l 0.865,-5.163 c 0.81,-0.279 1.618,-0.643 2.428,-1.005 l 4.27,3.042 c 1.256,0.893 2.959,0.67 3.991,-0.391 l 2.372,-2.316 c 0,0 0,0 0,-0.028 l 1.618,-1.591 2.372,-2.399 c 1.033,-1.033 1.2,-2.735 0.335,-3.936 l -3.042,-4.27 c 0.363,-0.81 0.698,-1.619 1.005,-2.456 l 5.163,-0.865 c 1.507,-0.251 2.567,-1.591 2.567,-3.069 l 0,-3.321 0,-2.289 0,-3.377 c 0,-1.507 -1.089,-2.791 -2.567,-3.042 l -5.19,-0.893 c -0.308,-0.81 -0.614,-1.619 -0.978,-2.428 l 3.042,-4.27 c 0.865,-1.228 0.698,-2.93 -0.335,-3.991 L 73.108,28.511 71.49,26.92 69.09,24.548 c -1.032,-1.033 -2.734,-1.2 -3.963,-0.335 l -4.241,3.014 C 60.076,26.864 59.267,26.529 58.43,26.222 L 57.565,21.087 C 57.314,19.58 55.974,18.492 54.467,18.492 l -3.321,0 -2.288,0 -3.351,0 0,0 z m 0,1.591 3.349,0 2.288,0 3.321,0 c 0.698,0 1.424,0.586 1.535,1.256 l 0.948,5.609 c 0.028,0.279 0.252,0.53 0.53,0.614 1.089,0.363 2.121,0.781 3.126,1.284 0.251,0.112 0.586,0.112 0.81,-0.056 l 4.66,-3.293 c 0.559,-0.391 1.423,-0.334 1.926,0.167 0,0 0,0 0,0.028 l 2.372,2.344 1.591,1.619 2.372,2.345 c 0.475,0.502 0.586,1.423 0.195,1.953 l -3.293,4.661 c -0.168,0.223 -0.195,0.558 -0.084,0.81 0.502,1.004 0.949,2.037 1.312,3.125 0.084,0.279 0.335,0.502 0.614,0.53 l 5.609,0.949 c 0.669,0.112 1.228,0.782 1.228,1.479 l 0,3.377 0,2.289 0,3.321 c 0,0.67 -0.559,1.396 -1.228,1.507 l -5.609,0.948 c -0.279,0.057 -0.53,0.252 -0.614,0.53 -0.362,1.089 -0.81,2.121 -1.312,3.126 -0.111,0.251 -0.084,0.586 0.084,0.81 l 3.293,4.633 c 0.391,0.558 0.307,1.451 -0.195,1.953 L 71.963,70.373 70.372,71.992 68,74.308 c -0.475,0.502 -1.396,0.613 -1.926,0.223 l -4.66,-3.293 c -0.224,-0.167 -0.559,-0.195 -0.81,-0.056 -1.005,0.502 -2.037,0.921 -3.126,1.284 -0.278,0.083 -0.502,0.334 -0.53,0.613 L 56,78.688 c -0.111,0.643 -0.837,1.256 -1.535,1.256 l -3.321,0 -2.288,0 -3.349,0 c -0.67,0 -1.368,-0.586 -1.479,-1.256 l -0.949,-5.609 c -0.056,-0.279 -0.279,-0.53 -0.53,-0.613 -1.088,-0.363 -2.121,-0.782 -3.125,-1.284 -0.279,-0.14 -0.586,-0.111 -0.81,0.056 l -4.604,3.293 c -0.53,0.391 -1.507,0.279 -2.009,-0.223 L 29.657,71.992 28.066,70.373 25.693,68 c -0.502,-0.502 -0.586,-1.396 -0.195,-1.953 l 3.293,-4.633 c 0.167,-0.224 0.195,-0.559 0.056,-0.81 C 28.345,59.599 27.898,58.567 27.535,57.478 27.452,57.2 27.2,57.004 26.921,56.948 L 21.312,56 C 20.67,55.889 20.056,55.163 20.056,54.493 l 0,-3.321 0,-2.289 0,-3.377 c 0,-0.697 0.614,-1.367 1.256,-1.479 l 5.609,-0.977 c 0.279,-0.028 0.502,-0.251 0.614,-0.502 0.363,-1.088 0.81,-2.121 1.312,-3.125 0.14,-0.251 0.112,-0.586 -0.056,-0.81 L 25.47,33.952 c -0.363,-0.53 -0.251,-1.451 0.223,-1.953 l 2.344,-2.344 1.619,-1.619 2.372,-2.344 c 0,-0.028 0,-0.028 0,-0.028 0.502,-0.502 1.367,-0.558 1.925,-0.167 l 4.661,3.293 c 0.223,0.167 0.558,0.167 0.81,0.056 1.004,-0.502 2.037,-0.921 3.125,-1.284 0.251,-0.084 0.474,-0.335 0.53,-0.614 l 0.949,-5.609 c 0.111,-0.67 0.809,-1.256 1.479,-1.256 l 0,0 z M 50,36.911 c -7.228,0 -13.088,5.888 -13.088,13.117 0,7.228 5.86,13.088 13.088,13.088 7.228,0 13.116,-5.86 13.116,-13.088 0,-7.229 -5.888,-13.117 -13.116,-13.117 l 0,0 z m 0,1.563 c 6.362,0 11.554,5.163 11.554,11.554 0,6.391 -5.192,11.526 -11.554,11.526 -6.391,0 -11.526,-5.135 -11.526,-11.526 0,-6.391 5.135,-11.554 11.526,-11.554 l 0,0 z"
       id="path6364"
       inkscape:connector-curvature="0"
       style="fill:#000000" /></g></svg>