<svg xmlns="http://www.w3.org/2000/svg" xmlns:xlink="http://www.w3.org/1999/xlink" version="1.1" id="Layer_1" x="0px" y="0px" width="100px" height="100px" viewBox="5.0 -10.0 100.0 135.0" enable-background="new 0 0 100 100" xml:space="preserve">
<g>
	<path d="M49.985,18.166c-10.567,0-19.129,8.685-19.129,19.315c0,6.316,1.78,9.474,3.476,12.266   c1.695,2.791,3.277,5.188,3.306,10.602c0,0.029,0,0.057,0,0.084c0,0.029,0,0.086,0,0.143c0,0.027,0,0.057,0,0.084l0.028,0.057   l2.995,15.48c0.255,1.324,1.554,2.143,2.938,2.143h0.227v0.422c0,1.607,1.13,3.074,2.684,3.074h6.979   c1.555,0,2.656-1.467,2.656-3.074v-0.422h0.254c1.385,0,2.685-0.818,2.939-2.143l2.967-15.48c0.028-0.057,0.028-0.113,0.028-0.17   c0-0.027,0-0.084,0-0.113c0-0.055,0-0.084,0-0.111c0.028-5.387,1.61-7.783,3.277-10.574c1.695-2.792,3.532-5.95,3.532-12.266   C69.144,26.85,60.554,18.166,49.985,18.166L49.985,18.166z M49.985,19.772c9.692,0,17.547,7.923,17.547,17.708   c0,6.006-1.582,8.656-3.277,11.448c-1.61,2.65-3.277,5.498-3.447,10.771h-7.629h-0.649V44.106c1.469-0.874,2.515-2.396,2.515-4.229   c0-2.792-2.261-5.075-5.059-5.075c-2.769,0-5.058,2.284-5.058,5.075c0,1.833,1.018,3.412,2.486,4.314v15.508h-0.621h-7.629   c-0.17-5.273-1.837-8.121-3.447-10.771c-1.695-2.792-3.278-5.442-3.278-11.448C32.438,27.696,40.294,19.772,49.985,19.772   L49.985,19.772z M49.985,36.409c1.922,0,3.476,1.551,3.476,3.468c0,1.41-0.848,2.623-2.034,3.158   c-0.282,0.141-0.48,0.423-0.48,0.733v15.931h-1.949V43.768c0-0.31-0.17-0.592-0.452-0.733c-1.188-0.536-2.007-1.749-2.007-3.158   C46.538,37.959,48.064,36.409,49.985,36.409L49.985,36.409z M39.39,61.307h8.675h5.114h7.403l-2.798,14.578   c-0.085,0.311-0.706,0.846-1.385,0.846h-0.932h-0.113h-8.562h-2.317H43.6c-0.706,0-1.356-0.535-1.412-0.846L39.39,61.307   L39.39,61.307z M45.437,78.338h1.356h7.771v0.422c0,0.902-0.565,1.496-1.074,1.496H46.51c-0.508,0-1.073-0.594-1.073-1.496V78.338   L45.437,78.338z"/>
</g>
<text x="0.0" y="117.5" font-size="5.0" font-weight="bold" font-family="Helvetica Neue, Helvetica, Arial-Unicode, Arial, Sans-serif" fill="#000000">Created by baabullah hasan</text><text x="0.0" y="122.5" font-size="5.0" font-weight="bold" font-family="Helvetica Neue, Helvetica, Arial-Unicode, Arial, Sans-serif" fill="#000000">from the Noun Project</text></svg>