<svg xmlns="http://www.w3.org/2000/svg" xmlns:xlink="http://www.w3.org/1999/xlink" version="1.1" id="Layer_1" x="0px" y="0px" width="71.468px" height="71.281px" viewBox="3.5734 -7.1281 71.468 96.22935" enable-background="new 0 0 71.468 71.281" xml:space="preserve">
<g>
	<path d="M35.734,0C16.014,0,0,15.856,0,35.444c0,16.333,11.176,30.112,26.369,34.181c0.424,0.112,0.877-0.168,0.99-0.561   c0.085-0.394-0.17-0.87-0.594-0.954C12.279,64.209,1.584,51.075,1.584,35.444c0-18.718,15.278-33.873,34.15-33.873   c18.871,0,34.121,15.154,34.121,33.873c0,15.631-10.693,28.765-25.18,32.666c-0.426,0.112-0.68,0.561-0.566,0.981   c0.113,0.394,0.566,0.646,0.99,0.533c15.193-4.068,26.369-17.848,26.369-34.181C71.468,15.856,55.455,0,35.734,0L35.734,0z    M35.706,14.481c-0.057,0.028-0.085,0.028-0.142,0.028c-0.17,0.056-0.312,0.112-0.396,0.225L20.824,28.625   c-0.283,0.28-0.283,0.842,0,1.122c0.283,0.309,0.82,0.309,1.132,0.028l12.986-12.601v53.293c0,0.421,0.368,0.813,0.792,0.813   c0.424,0,0.792-0.393,0.792-0.813V17.175l12.987,12.601c0.283,0.28,0.848,0.28,1.131-0.028c0.283-0.28,0.283-0.842-0.027-1.122   L36.271,14.733C36.13,14.593,35.932,14.481,35.706,14.481L35.706,14.481z"/>
</g>
</svg>