<svg xmlns="http://www.w3.org/2000/svg" xmlns:xlink="http://www.w3.org/1999/xlink" version="1.1" id="Layer_1" x="0px" y="0px" width="100px" height="100px" viewBox="5.0 -10.0 100.0 135.0" enable-background="new 0 0 100 100" xml:space="preserve">
<g>
	<path fill="#000000" d="M33.019,21.519c-0.168,0-0.336,0.084-0.448,0.224h-0.028l-10.786,10.73c-0.308,0.308-0.308,0.84,0,1.148   l11.991,11.991l4.146,4.175L24.698,63.012c-0.112,0.111-0.168,0.224-0.196,0.364l-1.905,6.836v0.056c-0.028,0-0.028,0-0.028,0.028   c-0.028,0.027-0.028,0.084-0.028,0.14l-0.028,0.057l0,0l-0.729,2.605c-0.476,1.765-0.252,3.361,0.756,4.342   c0.112,0.112,0.252,0.196,0.42,0.225c0.028,0.028,0.056,0.028,0.084,0.028c0.98,0.7,2.325,0.952,3.866,0.532l2.578-0.729   l0.168-0.057c0.056,0,0.084-0.027,0.14-0.056l6.78-1.877c0.112-0.028,0.252-0.084,0.336-0.196l13.279-13.252l2.521,2.521   l13.672,13.7c0.309,0.28,0.841,0.28,1.121-0.028l10.758-10.786c0.28-0.308,0.28-0.841,0-1.148l-13.7-13.7L62.1,50.151l9.357-9.385   c0.14-0.056,0.252-0.196,0.336-0.336l6.443-6.416c0.28-0.309,0.28-0.813,0-1.121L67.03,21.771   c-0.168-0.168-0.393-0.252-0.645-0.224c-0.168,0.028-0.336,0.112-0.448,0.224l-6.472,6.472c-0.14,0.084-0.252,0.196-0.336,0.336   L49.8,37.88l-4.174-4.175L33.775,21.854c-0.028-0.028-0.056-0.084-0.084-0.112C33.523,21.575,33.243,21.491,33.019,21.519   L33.019,21.519z M33.103,23.424l11.431,11.431l4.146,4.146l0.028,0.028l-9.666,9.638l-4.174-4.174l-1.737-1.737l2.073-2.045   c0.504-0.476,0-1.485-0.672-1.373c-0.168,0.028-0.336,0.112-0.448,0.252l-2.073,2.045l-1.121-1.121l3.446-3.446   c0.28-0.224,0.364-0.672,0.196-0.98c-0.168-0.309-0.588-0.477-0.925-0.364c-0.14,0.028-0.28,0.112-0.392,0.224l-3.446,3.446   l-1.121-1.121l2.045-2.073c0.476-0.448,0-1.429-0.645-1.345c-0.168,0.028-0.336,0.112-0.476,0.252l-2.045,2.045l-4.09-4.119   L33.103,23.424L33.103,23.424z M66.498,23.452l10.058,10.002l-5.52,5.52L60.979,28.971L66.498,23.452L66.498,23.452z    M59.858,30.092l10.058,10.002l-9.414,9.441c-0.027,0-0.056,0.028-0.084,0.056L49.632,60.378c-0.028,0.027-0.056,0.084-0.084,0.112   L35.96,74.05l-6.304,1.765l-5.463-5.463l1.765-6.359l13.476-13.504c0.056-0.028,0.112-0.085,0.168-0.112l10.786-10.787   c0.056-0.056,0.112-0.112,0.14-0.196L59.858,30.092L59.858,30.092z M58.905,35.667c-0.168,0.028-0.336,0.112-0.477,0.252   L30.525,63.824l-2.101-0.057c-0.084-0.028-0.168-0.028-0.252,0c-0.42,0.028-0.756,0.448-0.7,0.869   c0.028,0.42,0.448,0.756,0.868,0.7l1.709,0.084l0.084,1.709c0,0.392,0.392,0.756,0.812,0.756c0.42-0.027,0.785-0.42,0.757-0.84   l-0.084-2.102L59.55,37.012c0.448-0.42,0.056-1.373-0.561-1.345C58.962,35.667,58.934,35.667,58.905,35.667L58.905,35.667z    M63.416,40.178c-0.168,0.028-0.336,0.112-0.448,0.252L35.036,68.362l-2.101-0.084c-0.056,0-0.112,0-0.168,0   c-0.42,0.028-0.756,0.42-0.756,0.841c0.028,0.42,0.448,0.756,0.84,0.756l1.709,0.057l0.084,1.709c0.028,0.42,0.42,0.784,0.84,0.756   c0.393-0.027,0.757-0.42,0.729-0.84l-0.056-2.102L64.061,41.55c0.477-0.448,0.084-1.373-0.561-1.373   C63.472,40.178,63.444,40.178,63.416,40.178L63.416,40.178z M60.979,51.272l2.466,2.465l13.14,13.168l-9.638,9.666l-4.091-4.091   l2.046-2.045c0.504-0.448,0.027-1.457-0.645-1.373c-0.168,0.028-0.337,0.112-0.448,0.253l-2.073,2.045l-1.121-1.121l3.446-3.445   c0.28-0.225,0.364-0.673,0.196-0.981c-0.168-0.308-0.589-0.476-0.925-0.364c-0.14,0.028-0.28,0.112-0.393,0.225l-3.445,3.446   l-1.121-1.148l2.045-2.046c0.477-0.448,0-1.429-0.644-1.345c-0.169,0-0.337,0.084-0.477,0.225l-2.045,2.073l-3.446-3.446   l-2.493-2.493L60.979,51.272L60.979,51.272z M23.689,72.089l4.202,4.202l-1.4,0.393c-1.401,0.392-2.354,0.14-2.83-0.336   c-0.504-0.505-0.757-1.43-0.364-2.83L23.689,72.089L23.689,72.089z"/>
</g>
</svg>