<svg xmlns="http://www.w3.org/2000/svg" xmlns:xlink="http://www.w3.org/1999/xlink" version="1.1" id="Layer_1" x="0px" y="0px" width="100px" height="100px" viewBox="5.0 -10.0 100.0 135.0" enable-background="new 0 0 100 100" xml:space="preserve">
<g>
	<path d="M40.753,18.19c-0.028,0-0.056,0.028-0.083,0.028c-0.056,0-0.084,0.028-0.14,0.056c-1.931,0.17-3.469,1.776-3.469,3.777   c0,1.663,1.119,3.044,2.602,3.551l-2.686,16.883c0,0,0,0,0,0.028c-1.958,0.31-3.553,1.775-3.553,3.721   c0,2.17,1.986,3.86,4.281,3.86h8.197v27.368c0,0.197,0.084,0.423,0.196,0.563l3.33,3.551c0.308,0.311,0.868,0.311,1.175,0   l3.33-3.551c0.139-0.141,0.195-0.366,0.195-0.563V50.095h8.225c2.268,0,4.225-1.69,4.225-3.86c0-1.945-1.566-3.411-3.523-3.721   c0-0.028,0-0.028,0-0.028l-2.715-16.883c1.512-0.507,2.631-1.888,2.631-3.551c0-2.114-1.736-3.861-3.807-3.861H40.837   C40.81,18.19,40.782,18.19,40.753,18.19L40.753,18.19z M40.837,19.769c0.028,0,0.056,0,0.084,0h18.241   c1.203,0,2.211,1.015,2.211,2.283c0,1.184-0.867,2.086-1.986,2.198c-0.447,0.028-0.783,0.479-0.727,0.93l2.854,17.531   c0,0.141,0.027,0.254,0.027,0.423c-0.027,0.451,0.363,0.846,0.783,0.846h0.027c1.539,0,2.658,1.042,2.658,2.255   c0,1.184-1.119,2.254-2.658,2.254h-8.896h-6.854h-8.897c-1.539,0-2.714-1.07-2.714-2.254c0-1.185,1.175-2.255,2.714-2.255   c0.419,0,0.783-0.395,0.783-0.846c0-0.085,0-0.226,0.056-0.423l2.798-17.531c0.084-0.45-0.28-0.901-0.7-0.93   c-1.147-0.112-2.014-1.015-2.014-2.198C38.627,20.783,39.634,19.769,40.837,19.769L40.837,19.769z M47.496,50.095h5.064v27.086   l-2.519,2.678l-2.546-2.678V50.095L47.496,50.095z"/>
</g>
<text x="0.0" y="117.5" font-size="5.0" font-weight="bold" font-family="Helvetica Neue, Helvetica, Arial-Unicode, Arial, Sans-serif" fill="#000000">Created by baabullah hasan</text><text x="0.0" y="122.5" font-size="5.0" font-weight="bold" font-family="Helvetica Neue, Helvetica, Arial-Unicode, Arial, Sans-serif" fill="#000000">from the Noun Project</text></svg>