<svg xmlns="http://www.w3.org/2000/svg" xmlns:xlink="http://www.w3.org/1999/xlink" version="1.1" id="Layer_1" x="0px" y="0px" width="100px" height="100px" viewBox="5.0 -10.0 100.0 135.0" enable-background="new 0 0 100 100" xml:space="preserve">
<g>
	<path d="M30.68,20.719c-4.192,0-8.385,1.632-11.592,4.811c-6.416,6.415-6.416,16.768,0,23.154l8.329,8.327L49.419,79.07   c0.31,0.281,0.844,0.281,1.125,0l22.06-22.059l8.328-8.327c6.388-6.386,6.388-16.74,0-23.154c-6.415-6.386-16.741-6.386-23.156,0   l-7.766,7.793l-7.766-7.793C39.037,22.351,34.873,20.719,30.68,20.719L30.68,20.719z M30.68,22.323   c3.771,0,7.541,1.435,10.439,4.333l8.3,8.356c0.31,0.281,0.844,0.281,1.125,0l8.328-8.356c5.825-5.796,15.138-5.796,20.935,0   c5.796,5.824,5.796,15.108,0,20.932l-8.329,8.299L50.01,77.381L28.542,55.887l-8.357-8.299c-5.796-5.824-5.796-15.108,0-20.932   C23.111,23.758,26.882,22.323,30.68,22.323L30.68,22.323z M30.455,25.024c-2.926,0-5.88,1.125-8.131,3.348   c-2.729,2.757-3.799,6.555-3.18,10.1c0.056,0.422,0.506,0.759,0.929,0.675c0.422-0.084,0.731-0.535,0.647-0.957   c-0.535-3.038,0.366-6.302,2.757-8.665c1.941-1.941,4.446-2.926,6.978-2.926c0.422,0.028,0.788-0.366,0.788-0.788   C31.243,25.39,30.877,25.024,30.455,25.024L30.455,25.024z"/>
</g>
</svg>