<?xml version="1.0" encoding="UTF-8" standalone="no"?>
<svg
   xmlns:dc="http://purl.org/dc/elements/1.1/"
   xmlns:cc="http://creativecommons.org/ns#"
   xmlns:rdf="http://www.w3.org/1999/02/22-rdf-syntax-ns#"
   xmlns:svg="http://www.w3.org/2000/svg"
   xmlns="http://www.w3.org/2000/svg"
   xmlns:sodipodi="http://sodipodi.sourceforge.net/DTD/sodipodi-0.dtd"
   xmlns:inkscape="http://www.inkscape.org/namespaces/inkscape"
   version="1.1"
   id="Layer_1"
   x="0px"
   y="0px"
   width="100px"
   height="100px"
   viewBox="5.0 -10.0 100.0 135.0"
   enable-background="new 0 0 100 100"
   xml:space="preserve"
   inkscape:version="0.91 r13725"
   sodipodi:docname="icon-cloud-2.svg"><metadata
     id="metadata4115"><rdf:RDF><cc:Work
         rdf:about=""><dc:format>image/svg+xml</dc:format><dc:type
           rdf:resource="http://purl.org/dc/dcmitype/StillImage" /><dc:title></dc:title></cc:Work></rdf:RDF></metadata><defs
     id="defs4113" /><sodipodi:namedview
     pagecolor="#ffffff"
     bordercolor="#666666"
     borderopacity="1"
     objecttolerance="10"
     gridtolerance="10"
     guidetolerance="10"
     inkscape:pageopacity="0"
     inkscape:pageshadow="2"
     inkscape:window-width="1090"
     inkscape:window-height="760"
     id="namedview4111"
     showgrid="false"
     inkscape:zoom="2.36"
     inkscape:cx="50"
     inkscape:cy="50"
     inkscape:window-x="0"
     inkscape:window-y="0"
     inkscape:window-maximized="0"
     inkscape:current-layer="Layer_1" /><g
     id="g4103"
     transform="matrix(1.8873201,0,0,1.8873201,-39.366002,-41.26481)"><path
       d="m 56.674,26.418 c -9.321,0 -16.868,7.368 -17.291,16.593 l -9.913,0 c -8.42,0 -15.235,6.834 -15.235,15.271 0,8.437 6.815,15.3 15.235,15.3 l 41.088,0 c 8.42,0 15.207,-6.862 15.207,-15.3 0,-7.228 -5.014,-13.218 -11.715,-14.821 C 73.854,34.012 66.164,26.418 56.674,26.418 l 0,0 z m 0,1.575 c 8.73,0 15.799,7.059 15.799,15.833 0,0.085 0,0.169 0,0.226 0,0.395 0.281,0.731 0.648,0.816 6.309,1.209 11.066,6.692 11.066,13.414 0,7.594 -6.055,13.725 -13.629,13.725 l -41.088,0 c -7.575,0 -13.658,-6.131 -13.658,-13.725 0,-7.593 6.083,-13.668 13.658,-13.668 l 10.645,0 c 0.422,0 0.789,-0.394 0.789,-0.788 0,-8.774 7.04,-15.833 15.77,-15.833 l 0,0 z"
       id="path4105"
       inkscape:connector-curvature="0" /></g></svg>