<?xml version="1.0" encoding="UTF-8" standalone="no"?>
<svg
   xmlns:dc="http://purl.org/dc/elements/1.1/"
   xmlns:cc="http://creativecommons.org/ns#"
   xmlns:rdf="http://www.w3.org/1999/02/22-rdf-syntax-ns#"
   xmlns:svg="http://www.w3.org/2000/svg"
   xmlns="http://www.w3.org/2000/svg"
   xmlns:sodipodi="http://sodipodi.sourceforge.net/DTD/sodipodi-0.dtd"
   xmlns:inkscape="http://www.inkscape.org/namespaces/inkscape"
   version="1.1"
   id="Layer_1"
   x="0px"
   y="0px"
   width="100px"
   height="100px"
   viewBox="5.0 -10.0 100.0 135.0"
   enable-background="new 0 0 100 100"
   xml:space="preserve"
   inkscape:version="0.91 r13725"
   sodipodi:docname="icon-favorite.svg"><metadata
     id="metadata3568"><rdf:RDF><cc:Work
         rdf:about=""><dc:format>image/svg+xml</dc:format><dc:type
           rdf:resource="http://purl.org/dc/dcmitype/StillImage" /></cc:Work></rdf:RDF></metadata><defs
     id="defs3566" /><sodipodi:namedview
     pagecolor="#ffffff"
     bordercolor="#666666"
     borderopacity="1"
     objecttolerance="10"
     gridtolerance="10"
     guidetolerance="10"
     inkscape:pageopacity="0"
     inkscape:pageshadow="2"
     inkscape:window-width="1184"
     inkscape:window-height="1014"
     id="namedview3564"
     showgrid="false"
     inkscape:zoom="7.24"
     inkscape:cx="50"
     inkscape:cy="50"
     inkscape:window-x="0"
     inkscape:window-y="0"
     inkscape:window-maximized="0"
     inkscape:current-layer="Layer_1" /><g
     id="g3560"
     transform="matrix(2.1181494,0,0,2.1181494,-50.908717,-48.210817)"><path
       d="M 30.674,80.102 C 30.25,80.045 29.911,79.596 29.968,79.175 L 33.331,58.447 18.325,43.589 c -0.396,-0.393 -0.142,-1.208 0.424,-1.32 l 20.969,-3.258 9.58,-18.733 c 0.254,-0.505 1.159,-0.505 1.413,0 l 9.58,18.733 20.94,3.258 c 0.565,0.112 0.849,0.927 0.452,1.32 l -15.035,14.858 3.363,20.728 c 0.085,0.59 -0.622,1.096 -1.158,0.843 L 50.003,70.44 31.125,80.018 c -0.14,0.055 -0.31,0.084 -0.451,0.084 l 0,0 z m 1.159,-2.219 17.804,-9.044 c 0.226,-0.084 0.509,-0.084 0.707,0 L 68.176,77.883 65.01,58.307 c -0.057,-0.253 0.057,-0.534 0.226,-0.702 L 79.394,43.59 59.641,40.528 c -0.255,-0.056 -0.48,-0.225 -0.594,-0.449 L 50.004,22.412 40.932,40.079 c -0.113,0.225 -0.339,0.393 -0.565,0.449 L 20.585,43.59 34.743,57.605 c 0.198,0.168 0.282,0.449 0.254,0.702 l -3.164,19.576 0,0 z"
       id="path3562"
       inkscape:connector-curvature="0" /></g></svg>