<svg xmlns="http://www.w3.org/2000/svg" xmlns:xlink="http://www.w3.org/1999/xlink" version="1.1" id="Layer_1" x="0px" y="0px" width="71.441px" height="71.309px" viewBox="3.57205 -7.1309 71.441 96.26715" enable-background="new 0 0 71.441 71.309" xml:space="preserve">
<g>
	<path d="M35.96,0C19.61,0,5.816,11.15,1.715,26.311c-0.084,0.423,0.169,0.875,0.59,0.988c0.393,0.084,0.843-0.17,0.955-0.594   C7.165,12.252,20.313,1.609,35.96,1.609c18.738,0,33.908,15.216,33.908,34.045S54.698,69.728,35.96,69.728   c-15.647,0-28.795-10.671-32.7-25.152c-0.112-0.424-0.562-0.678-0.983-0.564c-0.393,0.112-0.646,0.564-0.562,0.987   C5.816,60.158,19.61,71.309,35.96,71.309c19.581,0,35.481-15.979,35.481-35.654S55.541,0,35.96,0L35.96,0z M42.028,20.552   c-0.562,0.084-0.814,0.959-0.393,1.354L54.22,34.864H0.872c-0.056,0-0.112,0-0.168,0c-0.393,0.028-0.73,0.451-0.702,0.875   c0.056,0.424,0.478,0.762,0.871,0.706H54.22L41.635,49.402c-0.338,0.282-0.365,0.875-0.057,1.186s0.899,0.282,1.18-0.057   L56.693,36.19c0.253-0.282,0.253-0.79,0-1.072L42.758,20.806c-0.168-0.198-0.421-0.282-0.646-0.254   C42.084,20.552,42.056,20.552,42.028,20.552L42.028,20.552z"/>
</g>
</svg>