<svg xmlns="http://www.w3.org/2000/svg" xmlns:xlink="http://www.w3.org/1999/xlink" version="1.1" id="Layer_1" x="0px" y="0px" width="100px" height="100px" viewBox="5.0 -10.0 100.0 135.0" enable-background="new 0 0 100 100" xml:space="preserve">
<g>
	<path d="M49.987,14.505c-19.6,0-35.48,15.881-35.48,35.48c0,19.6,15.881,35.51,35.48,35.51c19.599,0,35.507-15.91,35.507-35.51   C85.494,30.386,69.586,14.505,49.987,14.505L49.987,14.505z M49.987,16.071c18.759,0,33.941,15.154,33.941,33.915   c0,18.762-15.182,33.943-33.941,33.943c-18.733,0-33.915-15.182-33.915-33.943C16.072,31.225,31.254,16.071,49.987,16.071   L49.987,16.071z M49.987,27.283c-6.264,0-11.939,2.572-16.049,6.682c-0.196,0.196-0.364,0.392-0.531,0.587v-5.369   c0-0.447-0.448-0.867-0.895-0.811c-0.391,0.056-0.699,0.419-0.699,0.811v7.27c0,0.419,0.391,0.783,0.783,0.783h7.297   c0.392,0,0.783-0.364,0.783-0.783s-0.391-0.811-0.783-0.783h-5.424c0.196-0.224,0.392-0.419,0.587-0.615   c3.802-3.802,9.086-6.207,14.931-6.207c11.687,0,21.136,9.451,21.136,21.137c0,3.049-0.643,5.955-1.789,8.584   c-0.252,0.391-0.057,0.951,0.336,1.119c0.418,0.195,0.949-0.057,1.09-0.477c1.23-2.824,1.93-5.955,1.93-9.227   C72.689,37.46,62.512,27.283,49.987,27.283L49.987,27.283z M29.884,40.284c-0.28,0.056-0.531,0.252-0.643,0.503   c-1.23,2.823-1.929,5.927-1.929,9.198c0,12.525,10.149,22.703,22.675,22.703c6.57,0,12.468-2.795,16.634-7.24v5.34   c-0.027,0.42,0.363,0.811,0.783,0.811s0.783-0.391,0.783-0.811v-7.27c0-0.42-0.363-0.783-0.783-0.783h-7.27   c-0.418,0-0.811,0.363-0.811,0.783s0.393,0.811,0.811,0.783h5.424c-3.885,4.193-9.422,6.822-15.572,6.822   c-11.688,0-21.109-9.451-21.109-21.139c0-3.047,0.643-5.928,1.817-8.555C30.918,40.927,30.443,40.228,29.884,40.284L29.884,40.284z   "/>
</g>
<text x="0.0" y="117.5" font-size="5.0" font-weight="bold" font-family="Helvetica Neue, Helvetica, Arial-Unicode, Arial, Sans-serif" fill="#000000">Created by baabullah hasan</text><text x="0.0" y="122.5" font-size="5.0" font-weight="bold" font-family="Helvetica Neue, Helvetica, Arial-Unicode, Arial, Sans-serif" fill="#000000">from the Noun Project</text></svg>