<svg xmlns="http://www.w3.org/2000/svg" xmlns:xlink="http://www.w3.org/1999/xlink" version="1.1" id="Layer_1" x="0px" y="0px" width="100px" height="100px" viewBox="5.0 -10.0 100.0 135.0" enable-background="new 0 0 100 100" xml:space="preserve">
<g>
	<path d="M56.674,26.418c-9.321,0-16.868,7.368-17.291,16.593H29.47c-8.42,0-15.235,6.834-15.235,15.271s6.815,15.3,15.235,15.3   h41.088c8.42,0,15.207-6.862,15.207-15.3c0-7.228-5.014-13.218-11.715-14.821C73.854,34.012,66.164,26.418,56.674,26.418   L56.674,26.418z M56.674,27.993c8.73,0,15.799,7.059,15.799,15.833c0,0.085,0,0.169,0,0.226c0,0.395,0.281,0.731,0.648,0.816   c6.309,1.209,11.066,6.692,11.066,13.414c0,7.594-6.055,13.725-13.629,13.725H29.47c-7.575,0-13.658-6.131-13.658-13.725   c0-7.593,6.083-13.668,13.658-13.668h10.645c0.422,0,0.789-0.394,0.789-0.788C40.904,35.052,47.944,27.993,56.674,27.993   L56.674,27.993z"/>
</g>
<text x="0.0" y="117.5" font-size="5.0" font-weight="bold" font-family="Helvetica Neue, Helvetica, Arial-Unicode, Arial, Sans-serif" fill="#000000">Created by baabullah hasan</text><text x="0.0" y="122.5" font-size="5.0" font-weight="bold" font-family="Helvetica Neue, Helvetica, Arial-Unicode, Arial, Sans-serif" fill="#000000">from the Noun Project</text></svg>