<?xml version="1.0" encoding="UTF-8" standalone="no"?>
<svg
   xmlns:dc="http://purl.org/dc/elements/1.1/"
   xmlns:cc="http://creativecommons.org/ns#"
   xmlns:rdf="http://www.w3.org/1999/02/22-rdf-syntax-ns#"
   xmlns:svg="http://www.w3.org/2000/svg"
   xmlns="http://www.w3.org/2000/svg"
   xmlns:sodipodi="http://sodipodi.sourceforge.net/DTD/sodipodi-0.dtd"
   xmlns:inkscape="http://www.inkscape.org/namespaces/inkscape"
   version="1.1"
   id="Layer_1"
   x="0px"
   y="0px"
   width="100"
   height="100"
   viewBox="3.5734 -7.1282 99.999997 135"
   enable-background="new 0 0 71.468 71.282"
   xml:space="preserve"
   inkscape:version="0.91 r13725"
   sodipodi:docname="icon-arrow-down.svg"><metadata
     id="metadata3472"><rdf:RDF><cc:Work
         rdf:about=""><dc:format>image/svg+xml</dc:format><dc:type
           rdf:resource="http://purl.org/dc/dcmitype/StillImage" /><dc:title></dc:title></cc:Work></rdf:RDF></metadata><defs
     id="defs3470" /><sodipodi:namedview
     pagecolor="#ffffff"
     bordercolor="#666666"
     borderopacity="1"
     objecttolerance="10"
     gridtolerance="10"
     guidetolerance="10"
     inkscape:pageopacity="0"
     inkscape:pageshadow="2"
     inkscape:window-width="974"
     inkscape:window-height="919"
     id="namedview3468"
     showgrid="false"
     inkscape:zoom="4.64"
     inkscape:cx="37.804433"
     inkscape:cy="44.218501"
     inkscape:window-x="0"
     inkscape:window-y="0"
     inkscape:window-maximized="0"
     inkscape:current-layer="Layer_1" /><g
     id="g3464"
     transform="matrix(1.8889574,0,0,1.8889574,-13.926601,-7.0468494)"><path
       d="m 35.649,0.001 c -0.028,0 -0.057,0.028 -0.085,0.028 -0.368,0.084 -0.651,0.421 -0.623,0.786 l 0,53.271 L 21.956,41.52 c -0.198,-0.197 -0.481,-0.281 -0.736,-0.225 -0.594,0.111 -0.82,0.98 -0.396,1.373 l 14.345,13.859 c 0.283,0.309 0.82,0.309 1.103,0 L 50.617,42.668 c 0.311,-0.309 0.311,-0.84 0.027,-1.148 -0.283,-0.281 -0.848,-0.281 -1.131,0 l -12.987,12.566 0,-53.271 C 36.555,0.366 36.102,-0.026 35.649,0.001 l 0,0 z M 26.511,1.629 C 26.454,1.657 26.426,1.657 26.369,1.657 11.176,5.752 0,19.498 0,35.852 c 0,19.553 16.014,35.43 35.734,35.43 19.72,0 35.734,-15.877 35.734,-35.43 0,-16.354 -11.176,-30.1 -26.369,-34.195 -0.424,-0.112 -0.877,0.168 -0.99,0.561 -0.113,0.393 0.141,0.87 0.566,0.982 14.486,3.899 25.18,17.028 25.18,32.652 0,18.711 -15.25,33.859 -34.121,33.859 C 16.862,69.711 1.584,54.563 1.584,35.852 1.584,20.227 12.279,7.099 26.765,3.2 27.161,3.116 27.473,2.695 27.388,2.274 27.331,1.881 26.907,1.573 26.511,1.629 l 0,0 z"
       id="path3466"
       inkscape:connector-curvature="0" /></g></svg>