<?xml version="1.0" encoding="UTF-8" standalone="no"?>
<svg
   xmlns:dc="http://purl.org/dc/elements/1.1/"
   xmlns:cc="http://creativecommons.org/ns#"
   xmlns:rdf="http://www.w3.org/1999/02/22-rdf-syntax-ns#"
   xmlns:svg="http://www.w3.org/2000/svg"
   xmlns="http://www.w3.org/2000/svg"
   xmlns:sodipodi="http://sodipodi.sourceforge.net/DTD/sodipodi-0.dtd"
   xmlns:inkscape="http://www.inkscape.org/namespaces/inkscape"
   version="1.1"
   id="Layer_1"
   x="0px"
   y="0px"
   width="100px"
   height="100px"
   viewBox="5.0 -10.0 100.0 135.0"
   enable-background="new 0 0 100 100"
   xml:space="preserve"
   inkscape:version="0.91 r13725"
   sodipodi:docname="icon-cross.svg"><metadata
     id="metadata4323"><rdf:RDF><cc:Work
         rdf:about=""><dc:format>image/svg+xml</dc:format><dc:type
           rdf:resource="http://purl.org/dc/dcmitype/StillImage" /><dc:title></dc:title></cc:Work></rdf:RDF></metadata><defs
     id="defs4321" /><sodipodi:namedview
     pagecolor="#ffffff"
     bordercolor="#666666"
     borderopacity="1"
     objecttolerance="10"
     gridtolerance="10"
     guidetolerance="10"
     inkscape:pageopacity="0"
     inkscape:pageshadow="2"
     inkscape:window-width="1178"
     inkscape:window-height="728"
     id="namedview4319"
     showgrid="false"
     inkscape:zoom="2.36"
     inkscape:cx="50"
     inkscape:cy="50"
     inkscape:window-x="0"
     inkscape:window-y="0"
     inkscape:window-maximized="0"
     inkscape:current-layer="Layer_1" /><g
     id="g4315"
     transform="matrix(2.4239142,0,0,2.4239142,-66.196391,-63.488784)"><path
       d="m 22.985,22.238 c -0.056,0 -0.113,0 -0.141,0.028 -0.563,0.112 -0.816,0.927 -0.394,1.32 L 48.874,50.006 22.45,76.37 c -0.366,0.281 -0.394,0.871 -0.084,1.18 0.31,0.309 0.9,0.28 1.182,-0.084 L 50,51.073 76.452,77.466 c 0.282,0.364 0.845,0.393 1.183,0.084 0.31,-0.309 0.281,-0.898 -0.085,-1.18 L 51.098,50.006 77.55,23.586 c 0.479,-0.478 -0.056,-1.46 -0.703,-1.32 -0.169,0.028 -0.31,0.112 -0.395,0.225 L 50,48.855 23.548,22.491 c -0.141,-0.169 -0.366,-0.253 -0.563,-0.253 l 0,0 z"
       id="path4317"
       inkscape:connector-curvature="0" /></g></svg>