<?xml version="1.0" encoding="UTF-8" standalone="no"?>
<svg
   xmlns:dc="http://purl.org/dc/elements/1.1/"
   xmlns:cc="http://creativecommons.org/ns#"
   xmlns:rdf="http://www.w3.org/1999/02/22-rdf-syntax-ns#"
   xmlns:svg="http://www.w3.org/2000/svg"
   xmlns="http://www.w3.org/2000/svg"
   xmlns:sodipodi="http://sodipodi.sourceforge.net/DTD/sodipodi-0.dtd"
   xmlns:inkscape="http://www.inkscape.org/namespaces/inkscape"
   version="1.1"
   id="Layer_1"
   x="0px"
   y="0px"
   width="100px"
   height="100px"
   viewBox="5.0 -10.0 100.0 135.0"
   enable-background="new 0 0 100 100"
   xml:space="preserve"
   inkscape:version="0.91 r13725"
   sodipodi:docname="icon-upload.svg"><metadata
     id="metadata6294"><rdf:RDF><cc:Work
         rdf:about=""><dc:format>image/svg+xml</dc:format><dc:type
           rdf:resource="http://purl.org/dc/dcmitype/StillImage" /></cc:Work></rdf:RDF></metadata><defs
     id="defs6292" /><sodipodi:namedview
     pagecolor="#ffffff"
     bordercolor="#666666"
     borderopacity="1"
     objecttolerance="10"
     gridtolerance="10"
     guidetolerance="10"
     inkscape:pageopacity="0"
     inkscape:pageshadow="2"
     inkscape:window-width="914"
     inkscape:window-height="663"
     id="namedview6290"
     showgrid="false"
     inkscape:zoom="2.36"
     inkscape:cx="50"
     inkscape:cy="50"
     inkscape:window-x="0"
     inkscape:window-y="0"
     inkscape:window-maximized="0"
     inkscape:current-layer="Layer_1" /><g
     id="g6286"
     transform="matrix(2.1344549,0,0,2.1344549,-51.722744,-48.700194)"><path
       d="m 49.972,20.709 c -0.056,0 -0.112,0 -0.14,0.028 -0.168,0.028 -0.308,0.112 -0.392,0.196 l -14.005,14.05 c -0.364,0.252 -0.392,0.841 -0.084,1.149 0.308,0.337 0.896,0.309 1.177,-0.056 L 49.189,23.457 c 0,0.308 0.028,0.701 0.028,1.233 0,1.178 0,2.832 0.028,4.823 0,3.954 -0.028,9.142 -0.028,14.358 -0.028,10.432 -0.028,20.779 -0.028,20.779 0,0.421 0.364,0.813 0.784,0.813 0.42,0 0.784,-0.393 0.784,-0.813 0,0 0.028,-10.348 0.028,-20.779 0,-5.217 0.028,-10.433 0.028,-14.387 0,-1.99 -0.028,-3.617 -0.028,-4.795 0,-0.561 -0.028,-0.953 -0.028,-1.29 l 12.689,12.676 c 0.279,0.364 0.84,0.393 1.176,0.056 0.309,-0.309 0.28,-0.897 -0.084,-1.149 L 50.533,20.932 c -0.141,-0.138 -0.337,-0.223 -0.561,-0.223 l 0,0 z M 24.398,54.053 c -3.333,0 -6.022,2.72 -6.022,6.057 l 0,13.124 c 0,3.337 2.689,6.058 6.022,6.058 l 51.175,0 c 3.334,0 6.051,-2.721 6.051,-6.058 l 0,-13.125 c 0,-3.337 -2.717,-6.057 -6.051,-6.057 l -10.168,0 c -0.42,0 -0.784,0.393 -0.784,0.813 0,0.421 0.364,0.785 0.784,0.785 l 10.168,0 c 2.465,0 4.454,1.963 4.454,4.459 l 0,13.124 c 0,2.496 -1.989,4.486 -4.454,4.486 l -51.175,0 c -2.465,0 -4.454,-1.99 -4.454,-4.486 l 0,-13.124 c 0,-2.496 1.989,-4.459 4.454,-4.459 l 10.168,0 c 0.42,0 0.784,-0.364 0.784,-0.785 0,-0.42 -0.364,-0.813 -0.784,-0.813 l -10.168,0 0,10e-4 z"
       id="path6288"
       inkscape:connector-curvature="0" /></g></svg>