<?xml version="1.0" encoding="UTF-8" standalone="no"?>
<svg
   xmlns:dc="http://purl.org/dc/elements/1.1/"
   xmlns:cc="http://creativecommons.org/ns#"
   xmlns:rdf="http://www.w3.org/1999/02/22-rdf-syntax-ns#"
   xmlns:svg="http://www.w3.org/2000/svg"
   xmlns="http://www.w3.org/2000/svg"
   xmlns:sodipodi="http://sodipodi.sourceforge.net/DTD/sodipodi-0.dtd"
   xmlns:inkscape="http://www.inkscape.org/namespaces/inkscape"
   version="1.1"
   id="Layer_1"
   x="0px"
   y="0px"
   width="100"
   height="100"
   viewBox="3.57195 -7.1309 99.999996 135"
   enable-background="new 0 0 71.439 71.309"
   xml:space="preserve"
   inkscape:version="0.91 r13725"
   sodipodi:docname="icon-arrow-left.svg"><metadata
     id="metadata3851"><rdf:RDF><cc:Work
         rdf:about=""><dc:format>image/svg+xml</dc:format><dc:type
           rdf:resource="http://purl.org/dc/dcmitype/StillImage" /><dc:title></dc:title></cc:Work></rdf:RDF></metadata><defs
     id="defs3849" /><sodipodi:namedview
     pagecolor="#ffffff"
     bordercolor="#666666"
     borderopacity="1"
     objecttolerance="10"
     gridtolerance="10"
     guidetolerance="10"
     inkscape:pageopacity="0"
     inkscape:pageshadow="2"
     inkscape:window-width="1042"
     inkscape:window-height="841"
     id="namedview3847"
     showgrid="false"
     inkscape:zoom="3.2796268"
     inkscape:cx="35.719501"
     inkscape:cy="35.654499"
     inkscape:window-x="0"
     inkscape:window-y="0"
     inkscape:window-maximized="0"
     inkscape:current-layer="Layer_1" /><g
     id="g3843"
     transform="matrix(1.889724,0,0,1.8897312,-13.928049,-6.8838499)"><path
       d="M 35.522,0 C 15.919,0 0,15.979 0,35.654 c 0,19.675 15.919,35.654 35.522,35.654 16.397,0 30.179,-11.15 34.285,-26.311 0.113,-0.422 -0.168,-0.875 -0.563,-0.986 -0.394,-0.113 -0.871,0.141 -0.984,0.564 -3.909,14.48 -17.072,25.152 -32.738,25.152 -18.76,0 -33.947,-15.244 -33.947,-34.074 0,-18.829 15.188,-34.045 33.947,-34.045 15.666,0 28.829,10.643 32.738,25.096 0.113,0.424 0.563,0.678 0.984,0.594 0.395,-0.113 0.647,-0.564 0.563,-0.988 C 65.701,11.151 51.92,0 35.522,0 l 0,0 z m -6.356,20.552 c -0.169,0.028 -0.337,0.113 -0.478,0.254 L 14.794,35.118 c -0.281,0.282 -0.281,0.79 0,1.073 l 13.895,14.34 c 0.309,0.283 0.844,0.283 1.153,0 0.281,-0.281 0.281,-0.818 0,-1.129 l -12.601,-12.957 53.41,0 c 0.422,0 0.788,-0.367 0.788,-0.791 0,-0.423 -0.366,-0.79 -0.788,-0.79 l -53.41,0 12.601,-12.958 c 0.506,-0.451 0,-1.467 -0.676,-1.354 l 0,0 z"
       id="path3845"
       inkscape:connector-curvature="0" /></g></svg>