<?xml version="1.0" encoding="UTF-8" standalone="no"?>
<svg
   xmlns:dc="http://purl.org/dc/elements/1.1/"
   xmlns:cc="http://creativecommons.org/ns#"
   xmlns:rdf="http://www.w3.org/1999/02/22-rdf-syntax-ns#"
   xmlns:svg="http://www.w3.org/2000/svg"
   xmlns="http://www.w3.org/2000/svg"
   xmlns:sodipodi="http://sodipodi.sourceforge.net/DTD/sodipodi-0.dtd"
   xmlns:inkscape="http://www.inkscape.org/namespaces/inkscape"
   version="1.1"
   id="Layer_1"
   x="0px"
   y="0px"
   width="100px"
   height="100px"
   viewBox="5.0 -10.0 100.0 135.0"
   enable-background="new 0 0 100 100"
   xml:space="preserve"
   inkscape:version="0.91 r13725"
   sodipodi:docname="icon-checkout.svg"><metadata
     id="metadata4052"><rdf:RDF><cc:Work
         rdf:about=""><dc:format>image/svg+xml</dc:format><dc:type
           rdf:resource="http://purl.org/dc/dcmitype/StillImage" /></cc:Work></rdf:RDF></metadata><defs
     id="defs4050" /><sodipodi:namedview
     pagecolor="#ffffff"
     bordercolor="#666666"
     borderopacity="1"
     objecttolerance="10"
     gridtolerance="10"
     guidetolerance="10"
     inkscape:pageopacity="0"
     inkscape:pageshadow="2"
     inkscape:window-width="1288"
     inkscape:window-height="937"
     id="namedview4048"
     showgrid="false"
     inkscape:zoom="7.23"
     inkscape:cx="45.159059"
     inkscape:cy="51.708101"
     inkscape:window-x="0"
     inkscape:window-y="0"
     inkscape:window-maximized="0"
     inkscape:current-layer="Layer_1" /><g
     id="g4040"
     transform="matrix(2.1423131,0,0,2.1423131,-53.13152,-49.615652)"><path
       d="m 43.716,18.492 c -3.01,0 -5.463,2.483 -5.463,5.498 0,0.418 0.362,0.81 0.78,0.81 0.418,0 0.781,-0.391 0.781,-0.81 0,-2.177 1.728,-3.907 3.902,-3.907 l 26.813,0 c 2.174,0 3.902,1.73 3.902,3.907 l 0,52.02 c 0,2.177 -1.729,3.935 -3.902,3.935 l -26.813,0 c -2.174,0 -3.902,-1.758 -3.902,-3.935 0,-0.419 -0.362,-0.781 -0.781,-0.781 -0.418,0 -0.78,0.362 -0.78,0.781 0,3.042 2.453,5.498 5.463,5.498 l 26.813,0 c 3.01,0 5.463,-2.456 5.463,-5.498 l 0,-52.02 c 0,-3.014 -2.453,-5.498 -5.463,-5.498 l -26.813,0 0,0 z m 3.539,15.21 c -0.557,0.112 -0.808,0.977 -0.39,1.368 l 14.131,14.149 -36.122,0 c -0.056,0 -0.112,0 -0.14,0 -0.418,0.028 -0.752,0.447 -0.725,0.865 0.056,0.418 0.446,0.753 0.864,0.698 l 36.123,0 -14.131,14.149 c -0.334,0.278 -0.362,0.865 -0.056,1.172 0.307,0.335 0.892,0.279 1.171,-0.056 L 63.338,50.67 c 0.056,-0.028 0.084,-0.084 0.14,-0.112 0.027,-0.056 0.056,-0.083 0.083,-0.111 l 0,-0.028 c 0.028,0 0.028,-0.028 0.056,-0.056 0,0 0,0 0,-0.028 l 0.028,-0.028 c 0,-0.028 0,-0.028 0,-0.028 0,-0.028 0,-0.028 0.028,-0.056 l 0,-0.028 c 0,0 0,-0.028 0.027,-0.056 l 0,0 c 0,-0.028 0,-0.056 0,-0.056 0,-0.028 0,-0.028 0,-0.028 0,-0.056 0,-0.112 0,-0.14 0,-0.056 -0.027,-0.14 -0.027,-0.195 -0.028,0 -0.028,-0.028 -0.028,-0.028 0,-0.028 -0.028,-0.028 -0.028,-0.028 -0.027,-0.028 -0.027,-0.084 -0.056,-0.112 0,0 0,0 -0.027,-0.028 0,0 0,-0.028 -0.028,-0.028 0,-0.028 0,-0.028 0,-0.028 C 63.479,49.44 63.479,49.44 63.479,49.44 l -0.028,0 C 63.424,49.412 63.424,49.412 63.395,49.384 L 47.98,33.953 c -0.167,-0.167 -0.391,-0.251 -0.641,-0.251 -0.027,0 -0.056,0 -0.084,0 l 0,0 z"
       id="path4042"
       inkscape:connector-curvature="0"
       style="fill:#000000" /></g></svg>