<svg xmlns="http://www.w3.org/2000/svg" xmlns:xlink="http://www.w3.org/1999/xlink" version="1.1" id="Layer_1" x="0px" y="0px" width="71.439px" height="71.309px" viewBox="3.57195 -7.1309 71.439 96.26715" enable-background="new 0 0 71.439 71.309" xml:space="preserve">
<g>
	<path d="M35.522,0C15.919,0,0,15.979,0,35.654s15.919,35.654,35.522,35.654c16.397,0,30.179-11.15,34.285-26.311   c0.113-0.422-0.168-0.875-0.563-0.986c-0.394-0.113-0.871,0.141-0.984,0.564c-3.909,14.48-17.072,25.152-32.738,25.152   c-18.76,0-33.947-15.244-33.947-34.074c0-18.829,15.188-34.045,33.947-34.045c15.666,0,28.829,10.643,32.738,25.096   c0.113,0.424,0.563,0.678,0.984,0.594c0.395-0.113,0.647-0.564,0.563-0.988C65.701,11.151,51.92,0,35.522,0L35.522,0z    M29.166,20.552c-0.169,0.028-0.337,0.113-0.478,0.254L14.794,35.118c-0.281,0.282-0.281,0.79,0,1.073l13.895,14.34   c0.309,0.283,0.844,0.283,1.153,0c0.281-0.281,0.281-0.818,0-1.129L17.241,36.445h53.41c0.422,0,0.788-0.367,0.788-0.791   c0-0.423-0.366-0.79-0.788-0.79h-53.41l12.601-12.958C30.348,21.455,29.842,20.439,29.166,20.552L29.166,20.552z"/>
</g>
</svg>